<?xml version="1.0" encoding="UTF-8"?>
<svg xmlns="http://www.w3.org/2000/svg" xmlns:xlink="http://www.w3.org/1999/xlink" width="15px" height="15px" viewBox="0 0 15 15" version="1.1">
<g id="surface1">
<path style=" stroke:none;fill-rule:nonzero;fill:rgb(100%,100%,100%);fill-opacity:1;" d="M 12.582031 2.585938 C 12.382812 2.59375 12.199219 2.699219 12.09375 2.867188 L 6.449219 11.503906 L 2.792969 8.34375 C 2.636719 8.179688 2.402344 8.121094 2.183594 8.1875 C 1.96875 8.253906 1.808594 8.4375 1.769531 8.660156 C 1.734375 8.882812 1.824219 9.109375 2.007812 9.242188 L 6.1875 12.863281 C 6.320312 12.972656 6.492188 13.023438 6.660156 13 C 6.832031 12.972656 6.984375 12.875 7.078125 12.730469 L 13.105469 3.523438 C 13.234375 3.335938 13.246094 3.09375 13.132812 2.894531 C 13.023438 2.695312 12.808594 2.578125 12.582031 2.585938 Z M 12.582031 2.585938 "/>
</g>
</svg>
